<svg width="51" height="50" fill="none" xmlns="http://www.w3.org/2000/svg"><path d="M25.5.085C11.934.085.935 11.108.935 24.704S11.934 49.322 25.5 49.322 50.065 38.3 50.065 24.704C50.065 11.108 39.067.085 25.5.085zM21.756 10.82h7.487v3.337h-7.486V10.82zm10.338 27.768H18.906V14.483h13.188v24.104z" fill="#E9C10C"/><path d="M24.282 27.842h2.433c.527 0 .977-.412 1.128-.98h1.087v-4.574h-6.86v4.574h1.085c.154.569.6.98 1.127.98zm.052-8.412a.81.81 0 00-.181-.52.57.57 0 00-.437-.215c-.342 0-.617.33-.617.735v2.532h1.235V19.43zm3.566 0a.81.81 0 00-.18-.52.57.57 0 00-.437-.215c-.342 0-.617.33-.617.735v2.532h1.235V19.43zm-2.948 8.739h1.098v6.207h-1.098v-6.207z" fill="#E9C10C"/></svg>