<svg width="44" height="53" fill="none" xmlns="http://www.w3.org/2000/svg"><path d="M21.649 1.064C16.182 5.216 10.053 8.85.47 12.315a.614.614 0 00-.389.579c0 14.09 5.63 27.348 21.566 39.276.202.15.501.15.704 0 15.936-11.928 21.566-25.187 21.566-39.276a.614.614 0 00-.39-.579c-9.573-3.462-15.006-7.09-21.195-11.27-.32-.185-.486-.107-.685.02v-.001zm.37 17.464c.47 1.817 1.072 3.572 1.722 5.243.956 2.458 1.814 4.796 1.814 7.034 0 .697-.385 1.629-1.037 2.352-.652.722-1.53 1.231-2.518 1.231-.987 0-1.866-.509-2.517-1.231-.652-.723-1.037-1.655-1.037-2.351 0-2.24.85-4.579 1.814-7.035.655-1.67 1.27-3.43 1.758-5.243h.001z" fill="#E9C10C"/></svg>