<svg width="50" height="50" fill="none" xmlns="http://www.w3.org/2000/svg"><path d="M13.234 33.982a1.02 1.02 0 10-.001 2.044 1.02 1.02 0 00.001-2.044z" fill="#E9C10C"/><path d="M25 .59C11.436.59.446 11.58.446 25.142c0 13.564 10.99 24.554 24.554 24.554 13.564 0 24.554-10.99 24.554-24.554C49.554 11.58 38.564.59 25 .59zm-8.623 36.339c0 .786-.58 1.424-1.287 1.424h-3.535c-.717 0-1.287-.648-1.287-1.424V22.786c0-.786.58-1.424 1.287-1.424h3.535c.717 0 1.287.629 1.287 1.424v14.143zm21.165-10.873h-1.336c1.247 0 2.259.914 2.18 2.033-.068 1.022-1.09 1.798-2.259 1.798h-1.522c1.248 0 2.26.913 2.18 2.033-.068 1.021-1.09 1.797-2.258 1.797H33.25c1.247 0 2.259.914 2.18 2.033-.069 1.022-1.09 1.798-2.259 1.798H17.005s-.01 0-.01-.01v-15.34c.727 0 1.444-.01 2.171-.01 2.475-1.376 3.585-2.918 4.135-4.057.766-1.6 2.033-5.618 2.71-5.971.502-.256.973-.216.973-.216.059.01.098.02.118.02.795.107 1.483.883 1.777 1.924.236.963.629 3.182-.294 5.648a9.518 9.518 0 01-1.562 2.671c.206-.02 10.44-.03 10.44-.03 1.16 0 2.191.776 2.26 1.798.088 1.11-.914 2.033-2.18 2.082h-.001z" fill="#E9C10C"/></svg>