<svg id="Layer_1" data-name="Layer 1" xmlns="http://www.w3.org/2000/svg" viewBox="0 0 906.82 284.12"><defs><style>.cls-1,.cls-2{fill:none;}.cls-2{stroke:#ededed;stroke-miterlimit:13.05;stroke-width:3.92px;}.cls-3{fill:#ff3757;}.cls-4{fill:#fff;}.cls-5{fill:#0099d4;}.cls-6{fill:#1d1d1b;stroke:#1d1d1b;stroke-miterlimit:10;}</style></defs><rect class="cls-1" width="906.82" height="284.12"/><polyline id="Layer_1-2" data-name="Layer 1-2" class="cls-2" points="84.92 84.53 171.09 127.7 113.56 157.31 184.38 205.69 193.65 170.95"/><circle id="Layer_1-2-2" data-name="Layer 1-2" class="cls-3" cx="85.44" cy="85.44" r="13.49"/><circle id="Layer_1-2-3" data-name="Layer 1-2" class="cls-2" cx="85.44" cy="85.44" r="13.49"/><circle id="Layer_1-2-4" data-name="Layer 1-2" class="cls-3" cx="171.6" cy="128.52" r="9.23"/><circle id="Layer_1-2-5" data-name="Layer 1-2" class="cls-2" cx="171.6" cy="128.52" r="9.23"/><circle id="Layer_1-2-6" data-name="Layer 1-2" class="cls-4" cx="170.3" cy="88.05" r="5.31"/><circle id="Layer_1-2-7" data-name="Layer 1-2" class="cls-5" cx="91.32" cy="123.95" r="3.35"/><circle id="Layer_1-2-8" data-name="Layer 1-2" class="cls-3" cx="202.93" cy="111.55" r="4.01"/><circle id="Layer_1-2-9" data-name="Layer 1-2" class="cls-3" cx="123.3" cy="202.93" r="2.7"/><circle id="Layer_1-2-10" data-name="Layer 1-2" class="cls-3" cx="125.26" cy="123.95" r="2.05"/><circle id="Layer_1-2-11" data-name="Layer 1-2" class="cls-4" cx="78.26" cy="180.09" r="2.05"/><circle id="Layer_1-2-12" data-name="Layer 1-2" class="cls-5" cx="167.03" cy="164.42" r="2.05"/><circle id="Layer_1-2-13" data-name="Layer 1-2" class="cls-5" cx="195.1" cy="170.3" r="7.92"/><circle id="Layer_1-2-14" data-name="Layer 1-2" class="cls-2" cx="195.1" cy="170.3" r="7.92"/><circle id="Layer_1-2-15" data-name="Layer 1-2" class="cls-5" cx="111.55" cy="157.24" r="9.23"/><circle id="Layer_1-2-16" data-name="Layer 1-2" class="cls-2" cx="111.55" cy="157.24" r="9.23"/><circle id="Layer_1-2-17" data-name="Layer 1-2" class="cls-3" cx="182.05" cy="205.54" r="6.62"/><circle id="Layer_1-2-18" data-name="Layer 1-2" class="cls-2" cx="182.05" cy="205.54" r="6.62"/><path class="cls-3" d="M239.76,196.87l-5.76-15h2.24l3.92,11-.34-.14,2.86-7.4.9,2.62Zm7.08,0-5.9-15h1.94l4.24,10.88-.4-.08,3.74-10.8h2.06Zm11.58-.64V181.75h9.4v1.86h-7.46V188H267v1.86h-6.66v4.48h7.74v1.86Zm30,0h-4.64V181.75h3.94a9.09,9.09,0,0,1,3.65.66,6.54,6.54,0,0,1,2.43,1.74,7.19,7.19,0,0,1,1.35,2.39,8.29,8.29,0,0,1,.43,2.61h0a7.21,7.21,0,0,1-.57,2.94,6.44,6.44,0,0,1-1.57,2.22,6.86,6.86,0,0,1-2.29,1.41,7.55,7.55,0,0,1-2.73.49Zm-2.7-12.6v10.74H288a6.53,6.53,0,0,0,2.21-.36,5.1,5.1,0,0,0,1.76-1,4.66,4.66,0,0,0,1.17-1.67,5.71,5.71,0,0,0,.42-2.25h0a5.93,5.93,0,0,0-.44-2.35A4.81,4.81,0,0,0,292,185a5.47,5.47,0,0,0-1.72-1,5.92,5.92,0,0,0-2-.35h-2.5ZM300.94,189h0a7.12,7.12,0,0,1,.57-2.83,7.67,7.67,0,0,1,1.59-2.36,7.83,7.83,0,0,1,2.35-1.62,7.05,7.05,0,0,1,2.87-.59h0a7,7,0,0,1,2.85.59,8,8,0,0,1,2.36,1.62,7.73,7.73,0,0,1,1.61,2.36,7,7,0,0,1,.58,2.83h0a7.09,7.09,0,0,1-.58,2.88,7.24,7.24,0,0,1-1.61,2.35,7.52,7.52,0,0,1-2.36,1.58,7.18,7.18,0,0,1-2.85.57h0a7.2,7.2,0,0,1-2.87-.56,7.31,7.31,0,0,1-2.35-1.56,7,7,0,0,1-1.59-2.34A7.35,7.35,0,0,1,300.94,189Zm2,0h0a5.4,5.4,0,0,0,.42,2.13,5.63,5.63,0,0,0,1.16,1.75,5.26,5.26,0,0,0,1.72,1.19,5.15,5.15,0,0,0,2.12.43h0a5.2,5.2,0,0,0,3.8-1.62,5.75,5.75,0,0,0,1.14-1.75,5.42,5.42,0,0,0,.42-2.15h0a5.57,5.57,0,0,0-.42-2.15,5.72,5.72,0,0,0-1.16-1.77,5.58,5.58,0,0,0-1.72-1.19,5.26,5.26,0,0,0-2.1-.43h0a5.16,5.16,0,0,0-2.12.44,5.78,5.78,0,0,0-1.72,1.2,5.49,5.49,0,0,0-1.14,1.77A5.74,5.74,0,0,0,302.94,189Zm27.3-5.4v-1.86h9.6v1.86H336v12.6H334v-12.6Zm25.2-1.86h1.92v14.46h-1.92v-6.34h-7.58v6.34h-1.94V181.75h1.94V188h7.58Zm9.08,14.46V181.75h9.4v1.86h-7.46V188h6.66v1.86h-6.66v4.48h7.74v1.86Zm25.36-14.46h3.84a6.91,6.91,0,0,1,2,.29,4.83,4.83,0,0,1,1.62.86,4,4,0,0,1,1.08,1.4,4.52,4.52,0,0,1,.39,1.93h0a5.56,5.56,0,0,1-.25,1.68,4,4,0,0,1-.83,1.49,4.15,4.15,0,0,1-1.51,1.08,5.55,5.55,0,0,1-2.29.41h-2.14v5.32h-1.94Zm1.94,7.28h2.1a3.35,3.35,0,0,0,1.43-.26,2.21,2.21,0,0,0,.89-.67,2.61,2.61,0,0,0,.46-.89,3.35,3.35,0,0,0,.14-.9h0a3,3,0,0,0-.15-.91,2.67,2.67,0,0,0-.48-.87,2.77,2.77,0,0,0-.86-.66,2.93,2.93,0,0,0-1.29-.26h-2.24Zm2.18,1.16,2.3-.06,3.78,6.08h-2.24Zm12.06,6V181.75h9.4v1.86H408V188h6.66v1.86H408v4.48h7.74v1.86Zm24.26-13.36-.74,1.48a10.94,10.94,0,0,0-1.62-.66,5.89,5.89,0,0,0-1.72-.28h0a2.93,2.93,0,0,0-1.85.54,1.74,1.74,0,0,0-.69,1.44h0a1.62,1.62,0,0,0,.44,1.15,3.52,3.52,0,0,0,1.16.81c.48.23,1,.44,1.5.64h0c.45.18.9.37,1.34.58a5.17,5.17,0,0,1,1.19.8,3.62,3.62,0,0,1,.84,1.18,4.27,4.27,0,0,1,.31,1.74h0a3.9,3.9,0,0,1-2.2,3.56,5.51,5.51,0,0,1-2.52.54h0a7.28,7.28,0,0,1-1.83-.22,7.84,7.84,0,0,1-1.61-.57,10.16,10.16,0,0,1-1.32-.73h0l.86-1.52a7.6,7.6,0,0,0,1.1.65,6.59,6.59,0,0,0,1.3.5,4.73,4.73,0,0,0,1.32.19h0a3.79,3.79,0,0,0,1.35-.25,2.51,2.51,0,0,0,1.11-.77,2.06,2.06,0,0,0,.44-1.38h0a1.93,1.93,0,0,0-.39-1.23,3.5,3.5,0,0,0-1-.84,13.07,13.07,0,0,0-1.36-.63h0q-.68-.25-1.38-.57a6.24,6.24,0,0,1-1.3-.76,3.42,3.42,0,0,1-1-1.11,3.29,3.29,0,0,1-.36-1.6h0a3.56,3.56,0,0,1,.55-2,3.93,3.93,0,0,1,1.51-1.34,5.28,5.28,0,0,1,2.2-.53h0a8.38,8.38,0,0,1,2.47.34,9.14,9.14,0,0,1,1.89.84Zm6.42,13.36V181.75h9.4v1.86h-7.46V188h6.66v1.86h-6.66v4.48h7.74v1.86Zm16.5,0h-1.9l6.32-15.06h.12l6.3,15.06h-2.22l-4.72-12,1.38-.9Zm1.24-3.8.56-1.68h5.38l.64,1.68Zm15.32-10.66h3.84a6.91,6.91,0,0,1,2,.29,4.83,4.83,0,0,1,1.62.86,4,4,0,0,1,1.08,1.4,4.52,4.52,0,0,1,.39,1.93h0a5.56,5.56,0,0,1-.25,1.68,4,4,0,0,1-.83,1.49,4.15,4.15,0,0,1-1.51,1.08,5.55,5.55,0,0,1-2.29.41h-2.14v5.32H469.8Zm1.94,7.28h2.1a3.35,3.35,0,0,0,1.43-.26,2.21,2.21,0,0,0,.89-.67,2.61,2.61,0,0,0,.46-.89,3.35,3.35,0,0,0,.14-.9h0a3,3,0,0,0-.15-.91,2.67,2.67,0,0,0-.48-.87,2.77,2.77,0,0,0-.86-.66,2.93,2.93,0,0,0-1.29-.26h-2.24Zm2.18,1.16,2.3-.06,3.78,6.08h-2.24Zm21.54,3.22.82,1.72a8.77,8.77,0,0,1-1,.54,7,7,0,0,1-1.45.5,7.38,7.38,0,0,1-1.81.2h0a7.72,7.72,0,0,1-3-.6,6.65,6.65,0,0,1-2.29-1.58,6.91,6.91,0,0,1-1.45-2.31,7.6,7.6,0,0,1-.51-2.79h0a8.32,8.32,0,0,1,.53-3,7.21,7.21,0,0,1,1.49-2.38,6.94,6.94,0,0,1,2.27-1.57,7.27,7.27,0,0,1,2.87-.56h0a7.6,7.6,0,0,1,2.36.35,8.56,8.56,0,0,1,1.82.83h0l-.78,1.8a9.22,9.22,0,0,0-1.45-.76,4.82,4.82,0,0,0-1.89-.36h0a4.85,4.85,0,0,0-2,.42,5.24,5.24,0,0,0-1.66,1.18,5.64,5.64,0,0,0-1.13,1.77,5.82,5.82,0,0,0-.41,2.17h0a6.22,6.22,0,0,0,.37,2.19,5.07,5.07,0,0,0,1.06,1.75,4.82,4.82,0,0,0,1.67,1.16,5.53,5.53,0,0,0,2.2.42h0a5.23,5.23,0,0,0,2-.34,5.87,5.87,0,0,0,1.42-.76Zm16.6-11.66H514v14.46h-1.92v-6.34h-7.58v6.34h-1.94V181.75h1.94V188h7.58Zm8.62,12.72h1.68q-.43,1-.87,2.07l-.87,2.09h-1.5c.27-.7.53-1.4.78-2.09s.51-1.37.78-2.07Zm25.06-11.62-.74,1.48a10.94,10.94,0,0,0-1.62-.66,5.89,5.89,0,0,0-1.72-.28h0a2.93,2.93,0,0,0-1.85.54,1.74,1.74,0,0,0-.69,1.44h0a1.62,1.62,0,0,0,.44,1.15,3.52,3.52,0,0,0,1.16.81c.48.23,1,.44,1.5.64h0c.45.18.9.37,1.34.58a5.17,5.17,0,0,1,1.19.8,3.62,3.62,0,0,1,.84,1.18,4.27,4.27,0,0,1,.31,1.74h0a3.9,3.9,0,0,1-2.2,3.56,5.51,5.51,0,0,1-2.52.54h0a7.28,7.28,0,0,1-1.83-.22,7.84,7.84,0,0,1-1.61-.57,10.16,10.16,0,0,1-1.32-.73h0l.86-1.52a7.6,7.6,0,0,0,1.1.65,6.59,6.59,0,0,0,1.3.5,4.73,4.73,0,0,0,1.32.19h0a3.79,3.79,0,0,0,1.35-.25,2.51,2.51,0,0,0,1.11-.77,2.06,2.06,0,0,0,.44-1.38h0a1.93,1.93,0,0,0-.39-1.23,3.5,3.5,0,0,0-1-.84,13.07,13.07,0,0,0-1.36-.63h0q-.68-.25-1.38-.57a6.24,6.24,0,0,1-1.3-.76,3.42,3.42,0,0,1-1-1.11,3.29,3.29,0,0,1-.36-1.6h0a3.56,3.56,0,0,1,.55-2,3.93,3.93,0,0,1,1.51-1.34,5.28,5.28,0,0,1,2.2-.53h0a8.38,8.38,0,0,1,2.47.34,9.14,9.14,0,0,1,1.89.84Zm5.52,6.14h0a7.12,7.12,0,0,1,.57-2.83,7.67,7.67,0,0,1,1.59-2.36,7.83,7.83,0,0,1,2.35-1.62,7.05,7.05,0,0,1,2.87-.59h0a7,7,0,0,1,2.85.59,8,8,0,0,1,2.36,1.62,7.73,7.73,0,0,1,1.61,2.36A7,7,0,0,1,566,189h0a7.09,7.09,0,0,1-.58,2.88,7.24,7.24,0,0,1-1.61,2.35,7.52,7.52,0,0,1-2.36,1.58,7.18,7.18,0,0,1-2.85.57h0a7.2,7.2,0,0,1-2.87-.56,7.31,7.31,0,0,1-2.35-1.56,7,7,0,0,1-1.59-2.34A7.35,7.35,0,0,1,551.26,189Zm2,0h0a5.4,5.4,0,0,0,.42,2.13,5.63,5.63,0,0,0,1.16,1.75,5.26,5.26,0,0,0,1.72,1.19,5.15,5.15,0,0,0,2.12.43h0a5.2,5.2,0,0,0,3.8-1.62,5.75,5.75,0,0,0,1.14-1.75A5.42,5.42,0,0,0,564,189h0a5.57,5.57,0,0,0-.42-2.15,5.72,5.72,0,0,0-1.16-1.77,5.58,5.58,0,0,0-1.72-1.19,5.26,5.26,0,0,0-2.1-.43h0a5.16,5.16,0,0,0-2.12.44,5.78,5.78,0,0,0-1.72,1.2,5.49,5.49,0,0,0-1.14,1.77A5.74,5.74,0,0,0,553.26,189Zm32.2,7.2v-4.82l-5.36-9.64h2.38l4.3,8-.6,0,4.26-8h2.36l-5.4,9.64v4.82ZM596.38,189h0a7.12,7.12,0,0,1,.57-2.83,7.67,7.67,0,0,1,1.59-2.36,7.83,7.83,0,0,1,2.35-1.62,7.05,7.05,0,0,1,2.87-.59h0a7,7,0,0,1,2.85.59A8,8,0,0,1,609,183.8a7.73,7.73,0,0,1,1.61,2.36,7,7,0,0,1,.58,2.83h0a7.09,7.09,0,0,1-.58,2.88,7.24,7.24,0,0,1-1.61,2.35,7.52,7.52,0,0,1-2.36,1.58,7.18,7.18,0,0,1-2.85.57h0a7.2,7.2,0,0,1-2.87-.56,7.31,7.31,0,0,1-2.35-1.56,7,7,0,0,1-1.59-2.34A7.35,7.35,0,0,1,596.38,189Zm2,0h0a5.4,5.4,0,0,0,.42,2.13,5.63,5.63,0,0,0,1.16,1.75,5.26,5.26,0,0,0,1.72,1.19,5.15,5.15,0,0,0,2.12.43h0a5.2,5.2,0,0,0,3.8-1.62,5.75,5.75,0,0,0,1.14-1.75,5.42,5.42,0,0,0,.42-2.15h0a5.57,5.57,0,0,0-.42-2.15,5.72,5.72,0,0,0-1.16-1.77,5.58,5.58,0,0,0-1.72-1.19,5.26,5.26,0,0,0-2.1-.43h0a5.16,5.16,0,0,0-2.12.44,5.78,5.78,0,0,0-1.72,1.2,5.49,5.49,0,0,0-1.14,1.77A5.74,5.74,0,0,0,598.38,189Zm20.78-7.26v9.34a3.33,3.33,0,0,0,1.72,3,3.46,3.46,0,0,0,1.76.44h0a3.63,3.63,0,0,0,1.82-.44,3.26,3.26,0,0,0,1.26-1.21,3.29,3.29,0,0,0,.46-1.75h0v-9.34h1.9v9.4a5.08,5.08,0,0,1-.73,2.76,4.9,4.9,0,0,1-2,1.82,5.84,5.84,0,0,1-2.75.64h0a5.77,5.77,0,0,1-2.74-.64,4.85,4.85,0,0,1-1.94-1.82,5.16,5.16,0,0,1-.72-2.76h0v-9.4ZM649,196.21h-4.64V181.75h3.94a9.09,9.09,0,0,1,3.65.66,6.54,6.54,0,0,1,2.43,1.74,7.19,7.19,0,0,1,1.35,2.39,8.29,8.29,0,0,1,.43,2.61h0a7.21,7.21,0,0,1-.57,2.94,6.44,6.44,0,0,1-1.57,2.22,6.86,6.86,0,0,1-2.29,1.41,7.55,7.55,0,0,1-2.73.49Zm-2.7-12.6v10.74h2.32a6.53,6.53,0,0,0,2.21-.36,5.1,5.1,0,0,0,1.76-1,4.66,4.66,0,0,0,1.17-1.67,5.71,5.71,0,0,0,.42-2.25h0a5.93,5.93,0,0,0-.44-2.35,4.81,4.81,0,0,0-1.2-1.69,5.47,5.47,0,0,0-1.72-1,5.92,5.92,0,0,0-2-.35h-2.5ZM661.52,189h0a7.12,7.12,0,0,1,.57-2.83,7.67,7.67,0,0,1,1.59-2.36,7.83,7.83,0,0,1,2.35-1.62,7.05,7.05,0,0,1,2.87-.59h0a7,7,0,0,1,2.85.59,8,8,0,0,1,2.36,1.62,7.73,7.73,0,0,1,1.61,2.36,7,7,0,0,1,.58,2.83h0a7.09,7.09,0,0,1-.58,2.88,7.24,7.24,0,0,1-1.61,2.35,7.52,7.52,0,0,1-2.36,1.58,7.18,7.18,0,0,1-2.85.57h0a7.2,7.2,0,0,1-2.87-.56,7.31,7.31,0,0,1-2.35-1.56,7,7,0,0,1-1.59-2.34A7.35,7.35,0,0,1,661.52,189Zm2,0h0a5.4,5.4,0,0,0,.42,2.13,5.63,5.63,0,0,0,1.16,1.75,5.26,5.26,0,0,0,1.72,1.19,5.15,5.15,0,0,0,2.12.43h0a5.2,5.2,0,0,0,3.8-1.62,5.75,5.75,0,0,0,1.14-1.75,5.42,5.42,0,0,0,.42-2.15h0a5.57,5.57,0,0,0-.42-2.15,5.72,5.72,0,0,0-1.16-1.77,5.58,5.58,0,0,0-1.72-1.19,5.26,5.26,0,0,0-2.1-.43h0a5.16,5.16,0,0,0-2.12.44,5.78,5.78,0,0,0-1.72,1.2,5.49,5.49,0,0,0-1.14,1.77A5.74,5.74,0,0,0,663.52,189Zm31.62,7.66h-.06L683.9,185.33l.56.14,0,10.74h-1.94v-14.9h.1l11.06,11.38-.46-.1,0-10.84h1.92Zm5.94-15h1.68c0,.84,0,1.68,0,2.51s0,1.68,0,2.53h-1.6Zm6.44,2v-1.86h9.6v1.86h-3.88v12.6H711.3v-12.6ZM742,181.75H744v14.46H742v-6.34h-7.58v6.34h-1.94V181.75h1.94V188H742Zm9.54,14.46h-1.9L756,181.15h.12l6.3,15.06H760.2l-4.72-12,1.38-.9Zm1.24-3.8.56-1.68h5.38l.64,1.68Zm12.12-10.66h2.3l4.76,12-1.1-.22,4.52-11.74h2.26l-6.38,15.12Zm18.64,14.46V181.75H793v1.86h-7.46V188h6.66v1.86h-6.66v4.48h7.74v1.86Zm24.3-12.6v-1.86h9.6v1.86H813.6v12.6h-1.94v-12.6ZM822,189h0a7.12,7.12,0,0,1,.57-2.83,7.67,7.67,0,0,1,1.59-2.36,7.83,7.83,0,0,1,2.35-1.62,7.05,7.05,0,0,1,2.87-.59h0a7,7,0,0,1,2.85.59,8,8,0,0,1,2.36,1.62,7.73,7.73,0,0,1,1.61,2.36,7,7,0,0,1,.58,2.83h0a7.09,7.09,0,0,1-.58,2.88,7.24,7.24,0,0,1-1.61,2.35,7.52,7.52,0,0,1-2.36,1.58,7.18,7.18,0,0,1-2.85.57h0a7.2,7.2,0,0,1-2.87-.56,7.31,7.31,0,0,1-2.35-1.56,7,7,0,0,1-1.59-2.34A7.35,7.35,0,0,1,822,189Zm2,0h0a5.4,5.4,0,0,0,.42,2.13,5.63,5.63,0,0,0,1.16,1.75,5.26,5.26,0,0,0,1.72,1.19,5.15,5.15,0,0,0,2.12.43h0a5.2,5.2,0,0,0,3.8-1.62,5.75,5.75,0,0,0,1.14-1.75,5.42,5.42,0,0,0,.42-2.15h0a5.57,5.57,0,0,0-.42-2.15,5.72,5.72,0,0,0-1.16-1.77,5.58,5.58,0,0,0-1.72-1.19,5.26,5.26,0,0,0-2.1-.43h0a5.16,5.16,0,0,0-2.12.44,5.78,5.78,0,0,0-1.72,1.2,5.49,5.49,0,0,0-1.14,1.77A5.74,5.74,0,0,0,824,189Z"/><path class="cls-6" d="M261.61,102.67h5.57V144.6h-5.57V126.21h-22V144.6H234V102.67h5.63v18.21h22Zm12.21,29.69h0a12.41,12.41,0,0,1,6.44-11.08,13.81,13.81,0,0,1,6.84-1.68h0a13.72,13.72,0,0,1,6.9,1.68,12,12,0,0,1,4.59,4.59,13.1,13.1,0,0,1,1.62,6.49h0a13.26,13.26,0,0,1-1.62,6.53A11.77,11.77,0,0,1,294,143.5a13.89,13.89,0,0,1-6.93,1.68h0a14.15,14.15,0,0,1-6.81-1.6,11.8,11.8,0,0,1-4.7-4.46A12.94,12.94,0,0,1,273.82,132.36Zm5.39.06h0a8.45,8.45,0,0,0,1.05,4.2,7.93,7.93,0,0,0,2.81,3,7.23,7.23,0,0,0,3.92,1.1h0a7.41,7.41,0,0,0,4-1.1,7.49,7.49,0,0,0,2.75-3,8.86,8.86,0,0,0,1-4.2h0a9,9,0,0,0-1-4.21,7.81,7.81,0,0,0-2.75-3,7.35,7.35,0,0,0-4-1.13h0a7.14,7.14,0,0,0-4,1.16,8.29,8.29,0,0,0-2.78,3A8.62,8.62,0,0,0,279.21,132.42Zm26.31-11.83h4.81l.47,5.86-.24-.93a9.26,9.26,0,0,1,3.77-4.27,11.37,11.37,0,0,1,6-1.59h0a7.94,7.94,0,0,1,5.59,2,6.94,6.94,0,0,1,2.24,5.19h0V144.6h-5.46V128.77a4.91,4.91,0,0,0-1.13-3.22,4.15,4.15,0,0,0-3.33-1.25h0a6.51,6.51,0,0,0-3.77,1.16,7.93,7.93,0,0,0-2.64,3.19,10.9,10.9,0,0,0-1,4.7h0V144.6h-5.39Zm41.21,24.59h0a14.31,14.31,0,0,1-7.08-1.65A11.46,11.46,0,0,1,335.1,139a13.22,13.22,0,0,1-1.6-6.58h0a12,12,0,0,1,1.8-6.44,13.57,13.57,0,0,1,4.82-4.64,13.2,13.2,0,0,1,6.72-1.74h0a11.43,11.43,0,0,1,7.89,2.79A14.1,14.1,0,0,1,359,130h0l-19.78,7-1.28-3.19,16.24-5.91-1.16.75a8.07,8.07,0,0,0-2.32-3.34,6.22,6.22,0,0,0-4.23-1.42h0a7.34,7.34,0,0,0-3.95,1.08,7.46,7.46,0,0,0-2.72,2.93,8.86,8.86,0,0,0-1,4.23h0a8.87,8.87,0,0,0,1.05,4.38,7.63,7.63,0,0,0,2.87,3,7.93,7.93,0,0,0,4.14,1.07h0a8.22,8.22,0,0,0,3.05-.58,11.86,11.86,0,0,0,2.75-1.51h0l2.5,4a16.26,16.26,0,0,1-4,2A13.72,13.72,0,0,1,346.73,145.18Zm23.75-.12h0a14.08,14.08,0,0,1-5-.9,9.45,9.45,0,0,1-4-2.69h0l2.26-3.13a11.15,11.15,0,0,0,3.1,2.17,7.53,7.53,0,0,0,3.16.73h0a7.4,7.4,0,0,0,2.15-.29,3.28,3.28,0,0,0,1.59-1,2.58,2.58,0,0,0,.61-1.83h0a2.62,2.62,0,0,0-.84-2,6.57,6.57,0,0,0-2.14-1.22q-1.31-.45-2.76-.87h0a10.24,10.24,0,0,1-4.52-2.72,6.08,6.08,0,0,1-1.57-4.24h0a7,7,0,0,1,1-3.56,7.33,7.33,0,0,1,2.84-2.7,9.63,9.63,0,0,1,4.67-1h0a15.39,15.39,0,0,1,4.47.61,11.11,11.11,0,0,1,3.71,2h0l-2.15,3.36a6.33,6.33,0,0,0-2.49-1.62,9.19,9.19,0,0,0-2.61-.58h0a4.47,4.47,0,0,0-1.89.29,3.88,3.88,0,0,0-1.48,1,2.17,2.17,0,0,0-.58,1.51h0a2.52,2.52,0,0,0,.82,2,5.45,5.45,0,0,0,2.11,1.19l2.58.9h0a12.71,12.71,0,0,1,3.19,1.39,7.21,7.21,0,0,1,2.24,2.15,5.67,5.67,0,0,1,.84,3.19h0a8,8,0,0,1-1,4,7.14,7.14,0,0,1-3.07,2.9A11.25,11.25,0,0,1,370.48,145.06Zm17.2-24.36V110h5.39V120.7h6.61v4.24h-6.61V144.6h-5.39V124.94h-4.41V120.7Zm34.16-18H433a19.73,19.73,0,0,1,5.89.84,13.69,13.69,0,0,1,4.69,2.49,11.6,11.6,0,0,1,3.13,4.06,13,13,0,0,1,1.14,5.6h0a16.38,16.38,0,0,1-.73,4.87,11.56,11.56,0,0,1-2.41,4.32,12.06,12.06,0,0,1-4.38,3.13,16.3,16.3,0,0,1-6.64,1.19h-6.2V144.6h-5.63Zm5.63,21.11h6.09a9.93,9.93,0,0,0,4.15-.76,6.66,6.66,0,0,0,2.58-1.94,7.73,7.73,0,0,0,1.33-2.58,9.29,9.29,0,0,0,.41-2.61h0a8.69,8.69,0,0,0-.44-2.64,7.4,7.4,0,0,0-3.88-4.44,8.53,8.53,0,0,0-3.75-.75h-6.49Zm6.32,3.36,6.67-.17,11,17.63h-6.49Zm32.92,18h0a12.86,12.86,0,0,1-6.12-1.45,10.5,10.5,0,0,1-4.35-4.26,13.7,13.7,0,0,1-1.6-6.88h0a13.73,13.73,0,0,1,1.68-6.93,11.76,11.76,0,0,1,4.5-4.49A12.51,12.51,0,0,1,467,119.6h0a10.1,10.1,0,0,1,5.68,1.54,11.17,11.17,0,0,1,3.54,3.62h0l-.35.93.52-5.1h5v24H476v-6.26l.58,1.39a6,6,0,0,1-1,1.48,11.5,11.5,0,0,1-2.09,1.82,12.14,12.14,0,0,1-3,1.54A11,11,0,0,1,466.71,145.18Zm1.45-4.47h0a8.6,8.6,0,0,0,3.65-.75,7.21,7.21,0,0,0,2.7-2.12,7.8,7.8,0,0,0,1.48-3.27h0v-4.7a7.51,7.51,0,0,0-1.63-3.05,8.29,8.29,0,0,0-2.78-2,8.83,8.83,0,0,0-3.6-.72h0a7.75,7.75,0,0,0-6.81,3.94,8.51,8.51,0,0,0-1.08,4.35h0a8.31,8.31,0,0,0,1.11,4.24,8.12,8.12,0,0,0,2.95,3A7.69,7.69,0,0,0,468.16,140.71Zm20.56-20.12h4.81l.47,5.86-.24-.93a9.26,9.26,0,0,1,3.77-4.27,11.37,11.37,0,0,1,6-1.59h0a7.94,7.94,0,0,1,5.59,2,6.94,6.94,0,0,1,2.24,5.19h0V144.6h-5.46V128.77a4.91,4.91,0,0,0-1.13-3.22,4.15,4.15,0,0,0-3.33-1.25h0a6.51,6.51,0,0,0-3.77,1.16,7.93,7.93,0,0,0-2.64,3.19,10.9,10.9,0,0,0-1,4.7h0V144.6h-5.39Zm35.47,24h-5.4V99.71h5.4Zm2.2-12.93,3.6-3,11,15.95h-6.33Zm13.46-8.76-17.35,14-.52-5.16,14.56-11.71Zm5.83,21.69v-24h5.39v24Zm-.41-32.71h0a2.72,2.72,0,0,1,1-2.15,3.34,3.34,0,0,1,2.23-.87h0a3.12,3.12,0,0,1,2.17.87,2.79,2.79,0,0,1,1,2.15h0a2.75,2.75,0,0,1-1,2.17,3.18,3.18,0,0,1-2.17.84h0a3.34,3.34,0,0,1-2.23-.87A2.7,2.7,0,0,1,545.27,111.89Zm13.14,8.7h4.81l.47,5.86-.24-.93a9.26,9.26,0,0,1,3.77-4.27,11.37,11.37,0,0,1,6-1.59h0a7.94,7.94,0,0,1,5.59,2,6.94,6.94,0,0,1,2.24,5.19h0V144.6h-5.46V128.77a4.91,4.91,0,0,0-1.13-3.22,4.15,4.15,0,0,0-3.33-1.25h0a6.51,6.51,0,0,0-3.77,1.16,7.93,7.93,0,0,0-2.64,3.19,10.9,10.9,0,0,0-1,4.7h0V144.6h-5.39ZM600,156.49h0a16.22,16.22,0,0,1-4.69-.61,13.54,13.54,0,0,1-3.69-1.71,25.39,25.39,0,0,1-3.16-2.49h0l3.13-3.66a16.79,16.79,0,0,0,3.89,2.79,9.66,9.66,0,0,0,4.41,1h0a10.68,10.68,0,0,0,4.61-.9,6.69,6.69,0,0,0,2.87-2.49,6.83,6.83,0,0,0,1-3.68h0l0-6.5.47,1a9.22,9.22,0,0,1-3.77,4.21,12.2,12.2,0,0,1-6.61,1.71h0a11.38,11.38,0,0,1-6.06-1.68,12.72,12.72,0,0,1-6.07-11h0a12.58,12.58,0,0,1,1.74-6.64,13.18,13.18,0,0,1,4.59-4.56,12,12,0,0,1,6.2-1.68h0a13,13,0,0,1,5.83,1.31,9,9,0,0,1,3.86,3.33h0l-.29,1,.58-4.64h4.93v24.18a10.88,10.88,0,0,1-1.68,5.92,11.82,11.82,0,0,1-4.76,4.23A16,16,0,0,1,600,156.49Zm-8.23-24.13h0a8.4,8.4,0,0,0,1.1,4.24,8,8,0,0,0,3,3,8.08,8.08,0,0,0,4.2,1.1h0a9.21,9.21,0,0,0,3.86-.78,8.1,8.1,0,0,0,2.87-2.14,7.9,7.9,0,0,0,1.62-3.17h0v-4.75a7.74,7.74,0,0,0-1.74-3.05,8.67,8.67,0,0,0-2.9-2,9.33,9.33,0,0,0-3.71-.72h0a8.55,8.55,0,0,0-4.2,1,7.79,7.79,0,0,0-3,2.93A8.46,8.46,0,0,0,591.79,132.36Zm36.1,12.7h0a14,14,0,0,1-4.95-.9,9.54,9.54,0,0,1-4-2.69h0l2.26-3.13a11,11,0,0,0,3.11,2.17,7.46,7.46,0,0,0,3.16.73h0a7.29,7.29,0,0,0,2.14-.29,3.36,3.36,0,0,0,1.6-1,2.58,2.58,0,0,0,.61-1.83h0a2.62,2.62,0,0,0-.84-2,6.62,6.62,0,0,0-2.15-1.22c-.87-.3-1.78-.59-2.75-.87h0a10.33,10.33,0,0,1-4.53-2.72,6.12,6.12,0,0,1-1.56-4.24h0a7.06,7.06,0,0,1,1-3.56,7.29,7.29,0,0,1,2.85-2.7,9.56,9.56,0,0,1,4.66-1h0a15.29,15.29,0,0,1,4.47.61,11.11,11.11,0,0,1,3.71,2h0l-2.14,3.36a6.44,6.44,0,0,0-2.5-1.62,9.19,9.19,0,0,0-2.61-.58h0a4.45,4.45,0,0,0-1.88.29,3.88,3.88,0,0,0-1.48,1,2.17,2.17,0,0,0-.58,1.51h0a2.55,2.55,0,0,0,.81,2,5.49,5.49,0,0,0,2.12,1.19l2.58.9h0a12.71,12.71,0,0,1,3.19,1.39,7.17,7.17,0,0,1,2.23,2.15,5.67,5.67,0,0,1,.84,3.19h0a8.11,8.11,0,0,1-1,4,7.22,7.22,0,0,1-3.08,2.9A11.25,11.25,0,0,1,627.89,145.06Z"/></svg>