<svg width="44" height="44" fill="none" xmlns="http://www.w3.org/2000/svg"><path d="M42.044 17.205a1.542 1.542 0 00-1.541 1.542v21.587H3.496V3.328h29.296a1.542 1.542 0 000-3.084H1.955A1.542 1.542 0 00.414 1.786v40.09a1.542 1.542 0 001.541 1.541h40.09a1.542 1.542 0 001.542-1.542V18.747a1.54 1.54 0 00-1.542-1.542z" fill="#13B241"/><path d="M12.297 20.74a1.543 1.543 0 00-2.558.702 1.54 1.54 0 00.378 1.478l7.71 7.71a1.543 1.543 0 002.18 0L40.822 9.815a1.542 1.542 0 00-2.18-2.18L18.917 27.358l-6.62-6.619z" fill="#13B241"/></svg>