<svg width="204" height="40" fill="none" xmlns="http://www.w3.org/2000/svg"><path d="M19.054 2.774c.308-.903 1.584-.903 1.892 0l3.47 10.168a1 1 0 00.932.677l10.743.158c.953.014 1.348 1.228.585 1.8l-8.599 6.442a1 1 0 00-.356 1.095l3.17 10.266c.282.911-.751 1.662-1.531 1.113l-8.784-6.187a1 1 0 00-1.152 0l-8.784 6.187c-.78.549-1.812-.202-1.531-1.113l3.17-10.266a1 1 0 00-.356-1.095l-8.599-6.442c-.763-.572-.368-1.786.585-1.8l10.743-.158a1 1 0 00.932-.677l3.47-10.168zm41 0c.308-.903 1.584-.903 1.892 0l3.47 10.168a1 1 0 00.932.677l10.743.158c.954.014 1.348 1.228.585 1.8l-8.599 6.442a1 1 0 00-.356 1.095l3.17 10.266c.281.911-.752 1.662-1.531 1.113l-8.784-6.187a1 1 0 00-1.152 0l-8.784 6.187c-.78.549-1.813-.202-1.531-1.113l3.17-10.266a1 1 0 00-.356-1.095l-8.599-6.442c-.763-.572-.368-1.786.585-1.8l10.743-.158a1 1 0 00.932-.677l3.47-10.168zm41 0c.308-.903 1.584-.903 1.892 0l3.47 10.168a1 1 0 00.932.677l10.743.158c.953.014 1.348 1.228.585 1.8l-8.599 6.442a1 1 0 00-.356 1.095l3.17 10.266c.281.911-.751 1.662-1.531 1.113l-8.784-6.187a1 1 0 00-1.152 0l-8.784 6.187c-.78.549-1.813-.202-1.531-1.113l3.17-10.266a1 1 0 00-.356-1.095l-8.599-6.442c-.763-.572-.368-1.786.585-1.8l10.743-.158a1 1 0 00.932-.677l3.47-10.168zm41 0c.308-.903 1.584-.903 1.892 0l3.47 10.168a1 1 0 00.932.677l10.743.158c.953.014 1.348 1.228.585 1.8l-8.599 6.442a1 1 0 00-.356 1.095l3.17 10.266c.281.911-.751 1.662-1.531 1.113l-8.784-6.187a1 1 0 00-1.152 0l-8.784 6.187c-.78.549-1.812-.202-1.531-1.113l3.17-10.266a1.001 1.001 0 00-.356-1.095l-8.599-6.442c-.763-.572-.368-1.786.585-1.8l10.743-.158a1 1 0 00.932-.677l3.47-10.168zm41 0c.308-.903 1.584-.903 1.892 0l3.47 10.168a1 1 0 00.932.677l10.743.158c.953.014 1.348 1.228.585 1.8l-8.599 6.442a1 1 0 00-.356 1.095l3.17 10.266c.281.911-.751 1.662-1.531 1.113l-8.784-6.187a1 1 0 00-1.152 0l-8.784 6.187c-.78.549-1.812-.202-1.531-1.113l3.17-10.266a1.001 1.001 0 00-.356-1.095l-8.599-6.442c-.763-.572-.368-1.786.585-1.8l10.743-.158a1 1 0 00.932-.677l3.47-10.168z" fill="#F2C910"/></svg>